# xmcd
#
# Track frame offsets:
#       150
#       15982
#       34035
#       51970
#       65742
#       81350
#       97600
#       112652
#       125137
#       141342
#       158850
#       174217
#       192855
#       209545
#       224325
#       245750
#       266975
#       283550
#       303600
#       320775
#
# Disc length: 4456 seconds
#
# Revision: 4
# Processed by: cddbd v1.5.2PL0 Copyright (c) Steve Scherf et al.
# Submitted via: WaveLab 6.11
#
DISCID=2b116614
DTITLE=SMOKIE - The Story of Smokie
DYEAR=1995
DGENRE=Hits
TTITLE0=Titel 01
TTITLE1=Titel 02
TTITLE2=Titel 03
TTITLE3=Titel 04
TTITLE4=Titel 05
TTITLE5=Titel 06
TTITLE6=Titel 07
TTITLE7=Titel 08
TTITLE8=Titel 09
TTITLE9=Titel 10
TTITLE10=Titel 11
TTITLE11=Titel 12
TTITLE12=Titel 13
TTITLE13=Titel 14
TTITLE14=Titel 15
TTITLE15=Titel 16
TTITLE16=Titel 17
TTITLE17=Titel 18
TTITLE18=Titel 19
TTITLE19=Titel 20
EXTD=
EXTT0=
EXTT1=
EXTT2=
EXTT3=
EXTT4=
EXTT5=
EXTT6=
EXTT7=
EXTT8=
EXTT9=
EXTT10=
EXTT11=
EXTT12=
EXTT13=
EXTT14=
EXTT15=
EXTT16=
EXTT17=
EXTT18=
EXTT19=
PLAYORDER=
